<svg width="107" height="109" viewBox="0 0 107 109" fill="none" xmlns="http://www.w3.org/2000/svg">
<path d="M17.8333 31.7917C17.8333 26.7751 21.8254 22.7083 26.75 22.7083H80.25C85.1745 22.7083 89.1666 26.7751 89.1666 31.7917V86.2917C89.1666 91.3082 85.1745 95.375 80.25 95.375H26.75C21.8254 95.375 17.8333 91.3082 17.8333 86.2917V31.7917Z" fill="#B857A6"/>
<path d="M89.1666 49.9583V86.2917C89.1666 91.3083 85.1745 95.375 80.25 95.375H26.75C21.8254 95.375 17.8333 91.3083 17.8333 86.2917V49.9583M89.1666 49.9583V31.7917C89.1666 26.7751 85.1745 22.7083 80.25 22.7083H66.875M89.1666 49.9583H17.8333M66.875 13.625V22.7083M66.875 31.7917V22.7083M40.125 13.625V22.7083M40.125 31.7917V22.7083M17.8333 49.9583V31.7917C17.8333 26.7751 21.8254 22.7083 26.75 22.7083H40.125M66.875 22.7083H40.125" stroke="#290222" stroke-width="2" stroke-linecap="round" stroke-linejoin="round"/>
</svg>
