<svg width="66" height="67" viewBox="0 0 66 67" fill="none" xmlns="http://www.w3.org/2000/svg">
<g clip-path="url(#clip0_1_17)">
<path d="M52.6298 43.3054L25.5905 54.2402L12.1676 32.1623L26.3752 36.7315L28.7533 23.1627L39.8949 31.2641L46.9324 18.1032L52.6298 43.3054Z" fill="#BC7EDB"/>
<path d="M46.9324 18.1032L52.6298 43.3054L25.5905 54.2402L12.1676 32.1623M46.9324 18.1032L39.8949 31.2641L28.7533 23.1627M46.9324 18.1032C48.5324 17.4562 49.2945 15.6087 48.6345 13.9766C47.9745 12.3446 46.1424 11.5462 44.5424 12.1932C42.9424 12.8403 42.1803 14.6878 42.8403 16.3198C43.5003 17.9518 45.3324 18.7503 46.9324 18.1032ZM28.7533 23.1627L26.3752 36.7315L12.1676 32.1623M28.7533 23.1627C30.3533 22.5157 31.1154 20.6682 30.4554 19.0361C29.7954 17.4041 27.9633 16.6057 26.3633 17.2527C24.7633 17.8998 24.0012 19.7473 24.6612 21.3793C25.3212 23.0113 27.1533 23.8098 28.7533 23.1627ZM12.1676 32.1623C13.7676 31.5152 14.5296 29.6677 13.8696 28.0357C13.2096 26.4036 11.3776 25.6052 9.77755 26.2522C8.17754 26.8993 7.41551 28.7468 8.0755 30.3788C8.73548 32.0108 10.5676 32.8093 12.1676 32.1623Z" stroke="#BC7EDB" stroke-width="2" stroke-linecap="round" stroke-linejoin="round"/>
</g>
<defs>
<clipPath id="clip0_1_17">
<rect width="50" height="51" fill="white" transform="translate(0 18.7454) rotate(-22.0186)"/>
</clipPath>
</defs>
</svg>
