<svg width="50" height="50" viewBox="0 0 50 50" fill="none" xmlns="http://www.w3.org/2000/svg">
<path d="M25 0C38.8073 0 50 11.2613 50 25.1529C50 37.7073 40.8577 48.113 28.9062 50V32.4235H34.7315L35.8397 25.1529L28.9062 25.1518V20.4344C28.9062 20.4189 28.9062 20.4035 28.9065 20.3879C28.9065 20.3645 28.907 20.3414 28.9072 20.318C28.945 18.3704 29.9355 16.5065 32.9802 16.5065H36.1328V10.3166C36.1328 10.3166 33.2717 9.82431 30.5365 9.82431C24.915 9.82431 21.2105 13.1988 21.0965 19.3179C21.0947 19.4148 21.0938 19.5121 21.0938 19.6102V25.1518H14.7461V32.4225L21.0938 32.4235V49.999C9.14215 48.112 0 37.7073 0 25.1529C0 11.2613 11.1929 0 25 0Z" fill="#BC7EDB"/>
</svg>
