<svg width="50" height="50" viewBox="0 0 50 50" fill="none" xmlns="http://www.w3.org/2000/svg">
<path d="M16.6687 25C16.6687 20.3978 20.3986 16.666 25.001 16.666C29.6034 16.666 33.3353 20.3978 33.3353 25C33.3353 29.6022 29.6034 33.334 25.001 33.334C20.3986 33.334 16.6687 29.6022 16.6687 25ZM12.1633 25C12.1633 32.09 17.9107 37.8372 25.001 37.8372C32.0913 37.8372 37.8388 32.09 37.8388 25C37.8388 17.91 32.0913 12.1628 25.001 12.1628C17.9107 12.1628 12.1633 17.91 12.1633 25ZM35.3469 11.6538C35.3467 12.2472 35.5224 12.8272 35.8517 13.3207C36.1812 13.8142 36.6497 14.1989 37.1977 14.4262C37.7458 14.6535 38.349 14.7131 38.9311 14.5976C39.5131 14.4821 40.0479 14.1966 40.4674 13.7772C40.8871 13.3578 41.1731 12.8234 41.2891 12.2415C41.4052 11.6596 41.3459 11.0563 41.1191 10.508C40.8924 9.9598 40.5079 9.4911 40.0146 9.16125C39.5216 8.83143 38.9416 8.65525 38.348 8.655C37.5525 8.65537 36.789 8.9714 36.2264 9.53367C35.6639 10.0959 35.3474 10.8585 35.3469 11.6538ZM14.9006 45.3495C12.4631 45.2385 11.1382 44.8325 10.2578 44.4895C9.09056 44.035 8.25773 43.4938 7.3821 42.6195C6.50646 41.745 5.96444 40.913 5.51202 39.7458C5.16881 38.8657 4.76279 37.5405 4.65199 35.1032C4.53078 32.468 4.50658 31.6765 4.50658 25.0002C4.50658 18.324 4.53278 17.5346 4.65199 14.8972C4.76299 12.4598 5.17201 11.1372 5.51202 10.2546C5.96644 9.0874 6.50766 8.2546 7.3821 7.379C8.25653 6.5034 9.08856 5.9614 10.2578 5.509C11.1378 5.1658 12.4631 4.7598 14.9006 4.649C17.5359 4.5278 18.3275 4.5036 25.001 4.5036C31.6745 4.5036 32.4668 4.5298 35.1044 4.649C37.542 4.76 38.8646 5.169 39.7471 5.509C40.9144 5.9614 41.7472 6.5046 42.623 7.379C43.4985 8.2534 44.0385 9.0874 44.493 10.2546C44.8363 11.1346 45.2423 12.4598 45.3531 14.8972C45.4743 17.5346 45.4983 18.324 45.4983 25.0002C45.4983 31.6765 45.4743 32.4657 45.3531 35.1032C45.2421 37.5405 44.834 38.8655 44.493 39.7458C44.0385 40.913 43.4972 41.7458 42.623 42.6195C41.7484 43.493 40.9144 44.035 39.7471 44.4895C38.8671 44.8325 37.542 45.2385 35.1044 45.3495C32.469 45.4705 31.6775 45.4948 25.001 45.4948C18.3245 45.4948 17.5351 45.4705 14.9006 45.3495ZM14.6936 0.1514C12.0321 0.2726 10.2134 0.6946 8.62514 1.3126C6.98028 1.9508 5.58782 2.807 4.19637 4.1962C2.80491 5.5854 1.95088 6.98 1.31265 8.6248C0.694628 10.214 0.272611 12.0316 0.151406 14.693C0.0282011 17.3586 0 18.2108 0 25C0 31.7892 0.0282011 32.6415 0.151406 35.307C0.272611 37.9685 0.694628 39.786 1.31265 41.3753C1.95088 43.019 2.80511 44.4153 4.19637 45.8038C5.58762 47.1925 6.98028 48.0475 8.62514 48.6875C10.2164 49.3055 12.0321 49.7275 14.6936 49.8485C17.3607 49.9697 18.2115 50 25.001 50C31.7905 50 32.6428 49.9717 35.3084 49.8485C37.97 49.7275 39.7876 49.3055 41.3769 48.6875C43.0207 48.0475 44.4143 47.193 45.8056 45.8038C47.1971 44.4145 48.0494 43.019 48.6894 41.3753C49.3075 39.786 49.7315 37.9685 49.8505 35.307C49.9717 32.6395 50 31.7892 50 25C50 18.2108 49.9717 17.3586 49.8505 14.693C49.7295 12.0314 49.3075 10.213 48.6894 8.6248C48.0494 6.981 47.1949 5.5876 45.8056 4.1962C44.4163 2.8048 43.0207 1.9508 41.3789 1.3126C39.7876 0.6946 37.97 0.2706 35.3104 0.1514C32.6448 0.0302 31.7925 0 25.003 0C18.2135 0 17.3607 0.0282 14.6936 0.1514Z" fill="#BC7EDB"/>
</svg>
