<svg width="50" height="50" viewBox="0 0 50 50" fill="none" xmlns="http://www.w3.org/2000/svg">
<path d="M46.5049 0H3.64586C1.6204 0 0 1.61292 0 3.62903V46.3708C0 48.3064 1.6204 50 3.64586 50H46.3431C48.3685 50 49.9888 48.3872 49.9888 46.3708V3.54839C50.1509 1.61292 48.5304 0 46.5049 0ZM14.8265 42.5H7.45379V18.7097H14.8265V42.5ZM11.0996 15.4032C8.6691 15.4032 6.80561 13.4677 6.80561 11.129C6.80561 8.79033 8.75011 6.85483 11.0996 6.85483C13.4492 6.85483 15.3937 8.79033 15.3937 11.129C15.3937 13.4677 13.6112 15.4032 11.0996 15.4032ZM42.778 42.5H35.4054V30.9678C35.4054 28.2258 35.3245 24.5967 31.5166 24.5967C27.6275 24.5967 27.0605 27.6614 27.0605 30.7258V42.5H19.6876V18.7097H26.8983V22.0161H26.9793C28.0327 20.0806 30.3822 18.1452 34.0282 18.1452C41.563 18.1452 42.9402 22.9839 42.9402 29.5967V42.5H42.778Z" fill="#BC7EDB"/>
</svg>
