<svg width="44" height="45" viewBox="0 0 44 45" fill="none" xmlns="http://www.w3.org/2000/svg">
<g clip-path="url(#clip0_4_18)">
<path fill-rule="evenodd" clip-rule="evenodd" d="M17.4906 2.54561C18.5718 2.50053 19.4776 3.35432 19.5136 4.45261L19.6645 9.04468C19.7005 10.143 18.8532 11.0699 17.772 11.1149C16.6907 11.16 15.785 10.3062 15.7489 9.20793L15.5981 4.61585C15.562 3.51757 16.4093 2.59069 17.4906 2.54561ZM6.24234 9.76356C5.73296 10.7372 6.09373 11.9401 7.04816 12.4502L11.0387 14.583C11.9932 15.0931 13.1798 14.7173 13.6892 13.7436C14.1986 12.7699 13.8378 11.5671 12.8834 11.057L8.89281 8.92417C7.93839 8.41406 6.75173 8.78987 6.24234 9.76356ZM16.2726 17.4086C16.0714 15.2323 18.4043 13.7382 20.2392 14.8681L36.9449 25.1552C39.1038 26.4846 38.3021 29.8579 35.7762 30.072L30.2435 30.5412L35.5152 39.1015C36.2776 40.3396 35.9032 41.9789 34.6787 42.7633C33.4543 43.5475 31.8435 43.1796 31.081 41.9415L25.7971 33.3613L22.9544 38.284C21.6683 40.5113 18.3405 39.783 18.1039 37.2225L16.2726 17.4086ZM8.3599 23.8704C7.44155 24.4586 6.23347 24.1826 5.66162 23.254C5.08975 22.3254 5.37064 21.0958 6.289 20.5076L10.1287 18.0483C11.0471 17.4602 12.2552 17.7361 12.827 18.6647C13.3989 19.5933 13.118 20.8229 12.1997 21.4111L8.3599 23.8704ZM28.6929 10.5575C29.6112 9.96936 29.8921 8.73977 29.3202 7.81115C28.7484 6.88255 27.5403 6.60659 26.622 7.19476L22.7822 9.65402C21.8639 10.2422 21.583 11.4718 22.1548 12.4004C22.7267 13.329 23.9348 13.605 24.8531 13.0168L28.6929 10.5575Z" fill="#BC7EDB"/>
</g>
<defs>
<clipPath id="clip0_4_18">
<rect width="36.533" height="37.1843" fill="white" transform="translate(8.28094) rotate(12.8677)"/>
</clipPath>
</defs>
</svg>
